<svg xmlns="http://www.w3.org/2000/svg" xmlns:xlink="http://www.w3.org/1999/xlink" width="1000" zoomAndPan="magnify" viewBox="0 0 750 149.999998" height="200" preserveAspectRatio="xMidYMid meet" version="1.0"><defs><g/><clipPath id="2d768b27fd"><rect x="0" width="728" y="0" height="94"/></clipPath></defs><g transform="matrix(1, 0, 0, 1, 11, 28)"><g clip-path="url(#2d768b27fd)"><g fill="#ff7a00" fill-opacity="1"><g transform="translate(0.765586, 71.943498)"><g><path d="M 25.65625 0.90625 C 20.914062 0.90625 16.65625 0.21875 12.875 -1.15625 C 9.09375 -2.539062 6.148438 -3.988281 4.046875 -5.5 L 3.609375 -18.015625 L 4.59375 -18.1875 C 5.789062 -15.0625 7.363281 -12.164062 9.3125 -9.5 C 11.269531 -6.832031 13.75 -4.703125 16.75 -3.109375 C 19.75 -1.515625 23.320312 -0.71875 27.46875 -0.71875 C 29.863281 -0.71875 32.082031 -1.210938 34.125 -2.203125 C 36.164062 -3.191406 37.800781 -4.585938 39.03125 -6.390625 C 40.257812 -8.191406 40.875 -10.296875 40.875 -12.703125 C 40.875 -14.984375 40.273438 -16.960938 39.078125 -18.640625 C 37.878906 -20.316406 36.316406 -21.785156 34.390625 -23.046875 C 32.472656 -24.304688 30.445312 -25.398438 28.3125 -26.328125 C 26.1875 -27.265625 24.160156 -28.125 22.234375 -28.90625 C 18.691406 -30.34375 15.613281 -31.796875 13 -33.265625 C 10.394531 -34.742188 8.382812 -36.515625 6.96875 -38.578125 C 5.5625 -40.648438 4.859375 -43.28125 4.859375 -46.46875 C 4.859375 -50.007812 5.773438 -53.054688 7.609375 -55.609375 C 9.441406 -58.160156 12.007812 -60.140625 15.3125 -61.546875 C 18.613281 -62.953125 22.453125 -63.65625 26.828125 -63.65625 C 30.910156 -63.65625 34.421875 -63.207031 37.359375 -62.3125 C 40.304688 -61.414062 42.648438 -60.484375 44.390625 -59.515625 L 44.75 -49.078125 L 43.859375 -48.8125 C 42.171875 -52.707031 39.722656 -55.914062 36.515625 -58.4375 C 33.304688 -60.957031 29.117188 -62.21875 23.953125 -62.21875 C 21.546875 -62.21875 19.304688 -61.753906 17.234375 -60.828125 C 15.171875 -59.898438 13.523438 -58.5625 12.296875 -56.8125 C 11.066406 -55.070312 10.453125 -52.914062 10.453125 -50.34375 C 10.453125 -48.238281 10.957031 -46.40625 11.96875 -44.84375 C 12.988281 -43.28125 14.335938 -41.925781 16.015625 -40.78125 C 17.703125 -39.644531 19.535156 -38.640625 21.515625 -37.765625 C 23.503906 -36.898438 25.457031 -36.078125 27.375 -35.296875 C 30.738281 -33.972656 33.890625 -32.5625 36.828125 -31.0625 C 39.765625 -29.5625 42.148438 -27.726562 43.984375 -25.5625 C 45.816406 -23.40625 46.734375 -20.617188 46.734375 -17.203125 C 46.734375 -13.472656 45.710938 -10.242188 43.671875 -7.515625 C 41.628906 -4.785156 39 -2.695312 35.78125 -1.25 C 32.570312 0.1875 29.195312 0.90625 25.65625 0.90625 Z M 25.65625 0.90625 "/></g></g></g><g fill="#ff7a00" fill-opacity="1"><g transform="translate(50.372367, 71.943498)"><g><path d="M 17.921875 0 L 17.921875 -1.171875 C 19.296875 -1.585938 20.238281 -2.484375 20.75 -3.859375 C 21.257812 -5.242188 21.515625 -7.769531 21.515625 -11.4375 L 21.515625 -61.59375 L 17.109375 -61.59375 C 13.085938 -61.59375 10.023438 -60.960938 7.921875 -59.703125 C 5.816406 -58.441406 3.988281 -56.191406 2.4375 -52.953125 L 1.4375 -53.125 L 1.984375 -63.03125 L 48.359375 -63.03125 L 48.890625 -53.125 L 47.90625 -52.953125 C 46.40625 -56.191406 44.601562 -58.441406 42.5 -59.703125 C 40.394531 -60.960938 37.304688 -61.59375 33.234375 -61.59375 L 29 -61.59375 L 29 -11.4375 C 29 -7.769531 29.253906 -5.242188 29.765625 -3.859375 C 30.273438 -2.484375 31.21875 -1.585938 32.59375 -1.171875 L 32.59375 0 Z M 17.921875 0 "/></g></g></g><g fill="#ff7a00" fill-opacity="1"><g transform="translate(100.789422, 71.943498)"><g><path d="M 4.59375 0 L 4.59375 -1.171875 C 5.96875 -1.585938 6.910156 -2.484375 7.421875 -3.859375 C 7.929688 -5.242188 8.1875 -7.769531 8.1875 -11.4375 L 8.1875 -51.59375 C 8.1875 -55.320312 7.929688 -57.859375 7.421875 -59.203125 C 6.910156 -60.554688 5.96875 -61.441406 4.59375 -61.859375 L 4.59375 -63.03125 L 46.46875 -63.03125 L 47.453125 -51.328125 L 46.46875 -51.0625 C 44.90625 -55.019531 42.726562 -57.78125 39.9375 -59.34375 C 37.144531 -60.90625 33.4375 -61.6875 28.8125 -61.6875 L 15.578125 -61.6875 L 15.578125 -34.390625 L 27.109375 -34.390625 C 30.523438 -34.390625 33.175781 -34.613281 35.0625 -35.0625 C 36.957031 -35.519531 38.335938 -36.210938 39.203125 -37.140625 C 40.078125 -38.078125 40.695312 -39.203125 41.0625 -40.515625 L 42.140625 -40.515625 L 42.140625 -26.921875 L 41.0625 -26.921875 C 40.695312 -28.304688 40.078125 -29.445312 39.203125 -30.34375 C 38.335938 -31.25 36.957031 -31.925781 35.0625 -32.375 C 33.175781 -32.820312 30.523438 -33.046875 27.109375 -33.046875 L 15.578125 -33.046875 L 15.578125 -5.40625 C 15.578125 -2.695312 16.925781 -1.34375 19.625 -1.34375 L 31.34375 -1.34375 C 35.65625 -1.34375 39.222656 -2.09375 42.046875 -3.59375 C 44.867188 -5.101562 47.09375 -7.957031 48.71875 -12.15625 L 49.703125 -11.96875 L 48.984375 0 Z M 4.59375 0 "/></g></g></g><g fill="#ff7a00" fill-opacity="1"><g transform="translate(153.817364, 71.943498)"><g><path d="M 4.59375 0 L 4.59375 -1.171875 C 5.96875 -1.585938 6.910156 -2.484375 7.421875 -3.859375 C 7.929688 -5.242188 8.1875 -7.769531 8.1875 -11.4375 L 8.1875 -51.59375 C 8.1875 -55.320312 7.929688 -57.859375 7.421875 -59.203125 C 6.910156 -60.554688 5.96875 -61.441406 4.59375 -61.859375 L 4.59375 -63.03125 L 19.1875 -63.03125 L 19.1875 -61.859375 C 17.800781 -61.441406 16.851562 -60.554688 16.34375 -59.203125 C 15.832031 -57.859375 15.578125 -55.320312 15.578125 -51.59375 L 15.578125 -5.5 C 15.578125 -2.789062 16.925781 -1.4375 19.625 -1.4375 L 30.34375 -1.4375 C 34.664062 -1.4375 37.984375 -2.082031 40.296875 -3.375 C 42.609375 -4.664062 44.546875 -6.992188 46.109375 -10.359375 L 47.09375 -10.171875 L 46.46875 0 Z M 4.59375 0 "/></g></g></g><g fill="#ff7a00" fill-opacity="1"><g transform="translate(202.703915, 71.943498)"><g><path d="M 4.59375 0 L 4.59375 -1.171875 C 5.96875 -1.585938 6.910156 -2.484375 7.421875 -3.859375 C 7.929688 -5.242188 8.1875 -7.769531 8.1875 -11.4375 L 8.1875 -51.59375 C 8.1875 -55.320312 7.929688 -57.859375 7.421875 -59.203125 C 6.910156 -60.554688 5.96875 -61.441406 4.59375 -61.859375 L 4.59375 -63.03125 L 19.1875 -63.03125 L 19.1875 -61.859375 C 17.800781 -61.441406 16.851562 -60.554688 16.34375 -59.203125 C 15.832031 -57.859375 15.578125 -55.320312 15.578125 -51.59375 L 15.578125 -5.5 C 15.578125 -2.789062 16.925781 -1.4375 19.625 -1.4375 L 30.34375 -1.4375 C 34.664062 -1.4375 37.984375 -2.082031 40.296875 -3.375 C 42.609375 -4.664062 44.546875 -6.992188 46.109375 -10.359375 L 47.09375 -10.171875 L 46.46875 0 Z M 4.59375 0 "/></g></g></g><g fill="#ff7a00" fill-opacity="1"><g transform="translate(251.590446, 71.943498)"><g><path d="M -1.53125 0 L -1.53125 -1.171875 C -0.269531 -1.585938 0.957031 -2.410156 2.15625 -3.640625 C 3.363281 -4.878906 4.65625 -7.207031 6.03125 -10.625 L 23.765625 -54.5625 C 24.304688 -56.007812 24.25 -57.421875 23.59375 -58.796875 L 22.78125 -60.6875 L 29.53125 -63.75 L 51.6875 -10.53125 C 53.070312 -7.175781 54.316406 -4.878906 55.421875 -3.640625 C 56.535156 -2.410156 57.570312 -1.585938 58.53125 -1.171875 L 58.53125 0 L 44.578125 0 L 44.578125 -1.171875 C 45.953125 -1.585938 46.519531 -2.410156 46.28125 -3.640625 C 46.039062 -4.878906 45.203125 -7.175781 43.765625 -10.53125 L 38.265625 -23.765625 L 12.875 -23.765625 L 7.5625 -10.625 C 5.28125 -4.925781 5.640625 -1.773438 8.640625 -1.171875 L 8.640625 0 Z M 13.421875 -25.125 L 37.734375 -25.125 L 25.390625 -54.75 Z M 13.421875 -25.125 "/></g></g></g><g fill="#ff7a00" fill-opacity="1"><g transform="translate(309.299983, 71.943498)"><g><path d="M 50.421875 0.625 C 48.140625 0.625 46.335938 0.0703125 45.015625 -1.03125 C 43.703125 -2.144531 42.550781 -3.765625 41.5625 -5.890625 C 40.570312 -8.023438 39.414062 -10.65625 38.09375 -13.78125 C 36.769531 -16.894531 35.65625 -19.625 34.75 -21.96875 C 33.851562 -24.3125 32.878906 -26.265625 31.828125 -27.828125 C 30.773438 -29.390625 29.4375 -30.554688 27.8125 -31.328125 C 26.195312 -32.109375 24.039062 -32.5 21.34375 -32.5 L 15.578125 -32.5 L 15.578125 -11.4375 C 15.578125 -7.769531 15.832031 -5.242188 16.34375 -3.859375 C 16.851562 -2.484375 17.800781 -1.585938 19.1875 -1.171875 L 19.1875 0 L 4.59375 0 L 4.59375 -1.171875 C 5.96875 -1.585938 6.910156 -2.484375 7.421875 -3.859375 C 7.929688 -5.242188 8.1875 -7.769531 8.1875 -11.4375 L 8.1875 -51.59375 C 8.1875 -55.320312 7.929688 -57.859375 7.421875 -59.203125 C 6.910156 -60.554688 5.96875 -61.441406 4.59375 -61.859375 L 4.59375 -63.03125 L 22.328125 -63.03125 C 28.453125 -63.03125 33.222656 -62.414062 36.640625 -61.1875 C 40.066406 -59.957031 42.484375 -58.289062 43.890625 -56.1875 C 45.304688 -54.082031 46.015625 -51.679688 46.015625 -48.984375 C 46.015625 -44.785156 44.515625 -41.195312 41.515625 -38.21875 C 38.515625 -35.25 34.070312 -33.4375 28.1875 -32.78125 C 30.945312 -32.414062 33.195312 -31.796875 34.9375 -30.921875 C 36.675781 -30.054688 38.113281 -28.890625 39.25 -27.421875 C 40.394531 -25.953125 41.414062 -24.164062 42.3125 -22.0625 C 43.21875 -19.957031 44.210938 -17.523438 45.296875 -14.765625 C 46.734375 -11.160156 47.945312 -8.367188 48.9375 -6.390625 C 49.925781 -4.410156 50.84375 -3.015625 51.6875 -2.203125 C 52.53125 -1.390625 53.460938 -0.984375 54.484375 -0.984375 C 54.773438 -0.984375 55.023438 -0.984375 55.234375 -0.984375 C 55.453125 -0.984375 55.679688 -1.015625 55.921875 -1.078125 L 55.921875 0 C 55.253906 0.238281 54.394531 0.398438 53.34375 0.484375 C 52.300781 0.578125 51.328125 0.625 50.421875 0.625 Z M 15.578125 -33.859375 L 23.140625 -33.859375 C 28.304688 -33.859375 32.132812 -35.070312 34.625 -37.5 C 37.113281 -39.9375 38.359375 -43.078125 38.359375 -46.921875 C 38.359375 -49.617188 37.742188 -52.078125 36.515625 -54.296875 C 35.285156 -56.515625 33.300781 -58.300781 30.5625 -59.65625 C 27.832031 -61.007812 24.25 -61.6875 19.8125 -61.6875 C 19.144531 -61.6875 18.453125 -61.671875 17.734375 -61.640625 C 17.015625 -61.609375 16.296875 -61.5625 15.578125 -61.5 Z M 15.578125 -33.859375 "/></g></g></g><g fill="#ff7a00" fill-opacity="1"><g transform="translate(364.398632, 71.943498)"><g/></g></g><g fill="#000000" fill-opacity="1"><g transform="translate(383.307862, 71.943498)"><g><path d="M 4.59375 0 L 4.59375 -1.171875 C 5.96875 -1.585938 6.910156 -2.484375 7.421875 -3.859375 C 7.929688 -5.242188 8.1875 -7.769531 8.1875 -11.4375 L 8.1875 -51.59375 C 8.1875 -55.320312 7.929688 -57.859375 7.421875 -59.203125 C 6.910156 -60.554688 5.96875 -61.441406 4.59375 -61.859375 L 4.59375 -63.03125 L 46.46875 -63.03125 L 47.453125 -51.328125 L 46.46875 -51.0625 C 44.90625 -55.019531 42.726562 -57.78125 39.9375 -59.34375 C 37.144531 -60.90625 33.4375 -61.6875 28.8125 -61.6875 L 15.578125 -61.6875 L 15.578125 -34.390625 L 27.109375 -34.390625 C 30.523438 -34.390625 33.175781 -34.613281 35.0625 -35.0625 C 36.957031 -35.519531 38.335938 -36.210938 39.203125 -37.140625 C 40.078125 -38.078125 40.695312 -39.203125 41.0625 -40.515625 L 42.140625 -40.515625 L 42.140625 -26.921875 L 41.0625 -26.921875 C 40.695312 -28.304688 40.078125 -29.445312 39.203125 -30.34375 C 38.335938 -31.25 36.957031 -31.925781 35.0625 -32.375 C 33.175781 -32.820312 30.523438 -33.046875 27.109375 -33.046875 L 15.578125 -33.046875 L 15.578125 -5.40625 C 15.578125 -2.695312 16.925781 -1.34375 19.625 -1.34375 L 31.34375 -1.34375 C 35.65625 -1.34375 39.222656 -2.09375 42.046875 -3.59375 C 44.867188 -5.101562 47.09375 -7.957031 48.71875 -12.15625 L 49.703125 -11.96875 L 48.984375 0 Z M 4.59375 0 "/></g></g></g><g fill="#000000" fill-opacity="1"><g transform="translate(436.335805, 71.943498)"><g><path d="M 6.390625 -52.40625 C 5.066406 -55.832031 3.847656 -58.160156 2.734375 -59.390625 C 1.628906 -60.617188 0.597656 -61.441406 -0.359375 -61.859375 L -0.359375 -63.03125 L 13.6875 -63.03125 L 13.6875 -61.859375 C 12.363281 -61.441406 11.804688 -60.617188 12.015625 -59.390625 C 12.234375 -58.160156 13 -55.832031 14.3125 -52.40625 L 31.703125 -7.828125 L 48.8125 -52.3125 C 49.945312 -55.3125 50.421875 -57.578125 50.234375 -59.109375 C 50.054688 -60.640625 49.191406 -61.554688 47.640625 -61.859375 L 47.640625 -63.03125 L 57.71875 -63.03125 L 57.71875 -61.859375 C 56.519531 -61.441406 55.332031 -60.617188 54.15625 -59.390625 C 52.988281 -58.160156 51.742188 -55.832031 50.421875 -52.40625 L 29.984375 0.453125 L 27.46875 0.453125 Z M 6.390625 -52.40625 "/></g></g></g><g fill="#000000" fill-opacity="1"><g transform="translate(493.595173, 71.943498)"><g><path d="M 4.59375 0 L 4.59375 -1.171875 C 5.96875 -1.585938 6.910156 -2.484375 7.421875 -3.859375 C 7.929688 -5.242188 8.1875 -7.769531 8.1875 -11.4375 L 8.1875 -51.59375 C 8.1875 -55.320312 7.929688 -57.859375 7.421875 -59.203125 C 6.910156 -60.554688 5.96875 -61.441406 4.59375 -61.859375 L 4.59375 -63.03125 L 46.46875 -63.03125 L 47.453125 -51.328125 L 46.46875 -51.0625 C 44.90625 -55.019531 42.726562 -57.78125 39.9375 -59.34375 C 37.144531 -60.90625 33.4375 -61.6875 28.8125 -61.6875 L 15.578125 -61.6875 L 15.578125 -34.390625 L 27.109375 -34.390625 C 30.523438 -34.390625 33.175781 -34.613281 35.0625 -35.0625 C 36.957031 -35.519531 38.335938 -36.210938 39.203125 -37.140625 C 40.078125 -38.078125 40.695312 -39.203125 41.0625 -40.515625 L 42.140625 -40.515625 L 42.140625 -26.921875 L 41.0625 -26.921875 C 40.695312 -28.304688 40.078125 -29.445312 39.203125 -30.34375 C 38.335938 -31.25 36.957031 -31.925781 35.0625 -32.375 C 33.175781 -32.820312 30.523438 -33.046875 27.109375 -33.046875 L 15.578125 -33.046875 L 15.578125 -5.40625 C 15.578125 -2.695312 16.925781 -1.34375 19.625 -1.34375 L 31.34375 -1.34375 C 35.65625 -1.34375 39.222656 -2.09375 42.046875 -3.59375 C 44.867188 -5.101562 47.09375 -7.957031 48.71875 -12.15625 L 49.703125 -11.96875 L 48.984375 0 Z M 4.59375 0 "/></g></g></g><g fill="#000000" fill-opacity="1"><g transform="translate(546.623116, 71.943498)"><g><path d="M 52.140625 0.71875 L 9.71875 -54.484375 L 9.71875 -15.03125 C 9.71875 -11.613281 9.957031 -8.972656 10.4375 -7.109375 C 10.925781 -5.253906 11.632812 -3.890625 12.5625 -3.015625 C 13.488281 -2.140625 14.613281 -1.523438 15.9375 -1.171875 L 15.9375 0 L 4.6875 0 L 4.6875 -1.171875 C 6.0625 -1.585938 7.003906 -2.484375 7.515625 -3.859375 C 8.023438 -5.242188 8.28125 -7.769531 8.28125 -11.4375 L 8.28125 -51.59375 C 8.28125 -55.320312 7.945312 -57.859375 7.28125 -59.203125 C 6.625 -60.554688 5.398438 -61.441406 3.609375 -61.859375 L 3.609375 -63.03125 L 12.421875 -63.03125 L 51.78125 -12.0625 L 51.78125 -48 C 51.78125 -51.414062 51.539062 -54.066406 51.0625 -55.953125 C 50.582031 -57.847656 49.890625 -59.21875 48.984375 -60.0625 C 48.085938 -60.90625 46.945312 -61.503906 45.5625 -61.859375 L 45.5625 -63.03125 L 56.90625 -63.03125 L 56.90625 -61.859375 C 55.53125 -61.441406 54.585938 -60.554688 54.078125 -59.203125 C 53.566406 -57.859375 53.3125 -55.320312 53.3125 -51.59375 L 53.3125 0.71875 Z M 52.140625 0.71875 "/></g></g></g><g fill="#000000" fill-opacity="1"><g transform="translate(607.1236, 71.943498)"><g><path d="M 17.921875 0 L 17.921875 -1.171875 C 19.296875 -1.585938 20.238281 -2.484375 20.75 -3.859375 C 21.257812 -5.242188 21.515625 -7.769531 21.515625 -11.4375 L 21.515625 -61.59375 L 17.109375 -61.59375 C 13.085938 -61.59375 10.023438 -60.960938 7.921875 -59.703125 C 5.816406 -58.441406 3.988281 -56.191406 2.4375 -52.953125 L 1.4375 -53.125 L 1.984375 -63.03125 L 48.359375 -63.03125 L 48.890625 -53.125 L 47.90625 -52.953125 C 46.40625 -56.191406 44.601562 -58.441406 42.5 -59.703125 C 40.394531 -60.960938 37.304688 -61.59375 33.234375 -61.59375 L 29 -61.59375 L 29 -11.4375 C 29 -7.769531 29.253906 -5.242188 29.765625 -3.859375 C 30.273438 -2.484375 31.21875 -1.585938 32.59375 -1.171875 L 32.59375 0 Z M 17.921875 0 "/></g></g></g><g fill="#000000" fill-opacity="1"><g transform="translate(657.540654, 71.943498)"><g><path d="M 25.65625 0.90625 C 20.914062 0.90625 16.65625 0.21875 12.875 -1.15625 C 9.09375 -2.539062 6.148438 -3.988281 4.046875 -5.5 L 3.609375 -18.015625 L 4.59375 -18.1875 C 5.789062 -15.0625 7.363281 -12.164062 9.3125 -9.5 C 11.269531 -6.832031 13.75 -4.703125 16.75 -3.109375 C 19.75 -1.515625 23.320312 -0.71875 27.46875 -0.71875 C 29.863281 -0.71875 32.082031 -1.210938 34.125 -2.203125 C 36.164062 -3.191406 37.800781 -4.585938 39.03125 -6.390625 C 40.257812 -8.191406 40.875 -10.296875 40.875 -12.703125 C 40.875 -14.984375 40.273438 -16.960938 39.078125 -18.640625 C 37.878906 -20.316406 36.316406 -21.785156 34.390625 -23.046875 C 32.472656 -24.304688 30.445312 -25.398438 28.3125 -26.328125 C 26.1875 -27.265625 24.160156 -28.125 22.234375 -28.90625 C 18.691406 -30.34375 15.613281 -31.796875 13 -33.265625 C 10.394531 -34.742188 8.382812 -36.515625 6.96875 -38.578125 C 5.5625 -40.648438 4.859375 -43.28125 4.859375 -46.46875 C 4.859375 -50.007812 5.773438 -53.054688 7.609375 -55.609375 C 9.441406 -58.160156 12.007812 -60.140625 15.3125 -61.546875 C 18.613281 -62.953125 22.453125 -63.65625 26.828125 -63.65625 C 30.910156 -63.65625 34.421875 -63.207031 37.359375 -62.3125 C 40.304688 -61.414062 42.648438 -60.484375 44.390625 -59.515625 L 44.75 -49.078125 L 43.859375 -48.8125 C 42.171875 -52.707031 39.722656 -55.914062 36.515625 -58.4375 C 33.304688 -60.957031 29.117188 -62.21875 23.953125 -62.21875 C 21.546875 -62.21875 19.304688 -61.753906 17.234375 -60.828125 C 15.171875 -59.898438 13.523438 -58.5625 12.296875 -56.8125 C 11.066406 -55.070312 10.453125 -52.914062 10.453125 -50.34375 C 10.453125 -48.238281 10.957031 -46.40625 11.96875 -44.84375 C 12.988281 -43.28125 14.335938 -41.925781 16.015625 -40.78125 C 17.703125 -39.644531 19.535156 -38.640625 21.515625 -37.765625 C 23.503906 -36.898438 25.457031 -36.078125 27.375 -35.296875 C 30.738281 -33.972656 33.890625 -32.5625 36.828125 -31.0625 C 39.765625 -29.5625 42.148438 -27.726562 43.984375 -25.5625 C 45.816406 -23.40625 46.734375 -20.617188 46.734375 -17.203125 C 46.734375 -13.472656 45.710938 -10.242188 43.671875 -7.515625 C 41.628906 -4.785156 39 -2.695312 35.78125 -1.25 C 32.570312 0.1875 29.195312 0.90625 25.65625 0.90625 Z M 25.65625 0.90625 "/></g></g></g><g fill="#000000" fill-opacity="1"><g transform="translate(707.147415, 71.943498)"><g><path d="M 10.078125 0.625 C 8.816406 0.625 7.722656 0.144531 6.796875 -0.8125 C 5.867188 -1.769531 5.40625 -2.910156 5.40625 -4.234375 C 5.40625 -5.554688 5.867188 -6.679688 6.796875 -7.609375 C 7.722656 -8.535156 8.816406 -9 10.078125 -9 C 11.335938 -9 12.414062 -8.535156 13.3125 -7.609375 C 14.21875 -6.679688 14.671875 -5.554688 14.671875 -4.234375 C 14.671875 -2.910156 14.21875 -1.769531 13.3125 -0.8125 C 12.414062 0.144531 11.335938 0.625 10.078125 0.625 Z M 10.078125 0.625 "/></g></g></g></g></g></svg>