<svg xmlns="http://www.w3.org/2000/svg" xmlns:xlink="http://www.w3.org/1999/xlink" width="2000" zoomAndPan="magnify" viewBox="0 0 1500 1499.999933" height="2000" preserveAspectRatio="xMidYMid meet" version="1.0"><defs><clipPath id="7779da8577"><path d="M 31 26 L 1071 26 L 1071 1110 L 31 1110 Z M 31 26 " clip-rule="nonzero"/></clipPath><clipPath id="231b454f0d"><path d="M -8.277344 50.085938 L 1057.390625 0.441406 L 1107.953125 1085.75 L 42.285156 1135.394531 Z M -8.277344 50.085938 " clip-rule="nonzero"/></clipPath><clipPath id="728034c6d5"><path d="M -8.277344 50.085938 L 1057.390625 0.441406 L 1107.953125 1085.75 L 42.285156 1135.394531 Z M -8.277344 50.085938 " clip-rule="nonzero"/></clipPath><clipPath id="8efe967074"><path d="M 461.742188 1175.152344 L 640.257812 1175.152344 L 640.257812 1353.667969 L 461.742188 1353.667969 Z M 461.742188 1175.152344 " clip-rule="nonzero"/></clipPath><clipPath id="3c854c3aa0"><path d="M 551 1175.152344 C 501.703125 1175.152344 461.742188 1215.113281 461.742188 1264.410156 C 461.742188 1313.703125 501.703125 1353.667969 551 1353.667969 C 600.296875 1353.667969 640.257812 1313.703125 640.257812 1264.410156 C 640.257812 1215.113281 600.296875 1175.152344 551 1175.152344 Z M 551 1175.152344 " clip-rule="nonzero"/></clipPath><clipPath id="acf6ce3935"><path d="M 0.742188 0.152344 L 179.257812 0.152344 L 179.257812 178.667969 L 0.742188 178.667969 Z M 0.742188 0.152344 " clip-rule="nonzero"/></clipPath><clipPath id="d3e1e3cbbe"><path d="M 90 0.152344 C 40.703125 0.152344 0.742188 40.113281 0.742188 89.410156 C 0.742188 138.703125 40.703125 178.667969 90 178.667969 C 139.296875 178.667969 179.257812 138.703125 179.257812 89.410156 C 179.257812 40.113281 139.296875 0.152344 90 0.152344 Z M 90 0.152344 " clip-rule="nonzero"/></clipPath><clipPath id="323eb87e61"><rect x="0" width="180" y="0" height="179"/></clipPath><clipPath id="511c187446"><rect x="0" width="1102" y="0" height="1354"/></clipPath></defs><g transform="matrix(1, 0, 0, 1, 199, 73)"><g clip-path="url(#511c187446)"><g clip-path="url(#7779da8577)"><g clip-path="url(#231b454f0d)"><g clip-path="url(#728034c6d5)"><path fill="#ff7a00" d="M 1016.765625 638.75 L 650.53125 563.304688 L 1016.945312 498.304688 C 1057.492188 485.1875 1079.730469 441.683594 1066.613281 401.136719 C 1053.496094 360.589844 1009.992188 338.351562 969.441406 351.46875 L 628.8125 505.699219 L 887.039062 237.742188 C 912.132812 203.296875 904.550781 155.03125 870.105469 129.933594 C 835.660156 104.839844 787.394531 112.421875 762.300781 146.867188 L 589.1875 451.101562 L 628.789062 103.296875 C 628.84375 60.679688 594.339844 26.085938 551.722656 26.03125 C 509.105469 25.976562 474.511719 60.480469 474.457031 103.097656 L 526.039062 473.617188 L 340.832031 146.328125 C 315.828125 111.816406 267.578125 104.109375 233.070312 129.117188 C 198.558594 154.121094 190.855469 202.367188 215.859375 236.878906 L 475.375 506.316406 L 133.164062 350.394531 C 92.648438 337.171875 49.085938 359.296875 35.867188 399.8125 C 22.644531 440.328125 44.769531 483.886719 85.285156 497.109375 L 453.609375 562.546875 L 85.101562 637.550781 C 44.554688 650.667969 22.316406 694.171875 35.433594 734.722656 C 48.554688 775.269531 92.058594 797.507812 132.605469 784.390625 L 469.050781 620.835938 L 215.007812 898.117188 C 189.914062 932.5625 197.496094 980.828125 231.941406 1005.921875 C 266.386719 1031.015625 314.65625 1023.433594 339.75 988.988281 L 528.773438 634.59375 L 473.261719 1032.5625 C 473.207031 1075.179688 507.710938 1109.769531 550.328125 1109.824219 C 592.945312 1109.878906 627.539062 1075.375 627.59375 1032.757812 L 586.171875 661.140625 L 761.21875 989.53125 C 786.222656 1024.042969 834.46875 1031.746094 868.980469 1006.742188 C 903.488281 981.738281 911.195312 933.488281 886.1875 898.980469 L 634.246094 622.675781 L 968.886719 785.464844 C 1009.398438 798.6875 1052.960938 776.5625 1066.183594 736.046875 C 1079.40625 695.53125 1057.28125 651.972656 1016.765625 638.75 Z M 1016.765625 638.75 " fill-opacity="1" fill-rule="nonzero"/></g></g></g><g clip-path="url(#8efe967074)"><g clip-path="url(#3c854c3aa0)"><g transform="matrix(1, 0, 0, 1, 461, 1175)"><g clip-path="url(#323eb87e61)"><g clip-path="url(#acf6ce3935)"><g clip-path="url(#d3e1e3cbbe)"><path fill="#ff7a00" d="M 0.742188 0.152344 L 179.257812 0.152344 L 179.257812 178.667969 L 0.742188 178.667969 Z M 0.742188 0.152344 " fill-opacity="1" fill-rule="nonzero"/></g></g></g></g></g></g></g></g></svg>